Coordinates
nRows=233
nColumns=2
inDegrees=yes
endheader
time	ankle_angle_r	
2.86089	  9.343951	
2.89415	  9.392763	
2.92742	  9.329965	
2.96069	  9.365377	
2.99395	  9.357253	
3.02722	  9.368896	
3.06048	  9.368896	
3.09375	  9.376707	
3.12702	  9.360892	
3.16028	  9.364798	
3.19355	  9.384155	
3.22681	  9.386538	
3.26008	  9.368896	
3.29335	  9.388641	
3.32661	  9.364314	
3.35988	  9.379477	
3.39315	  9.420381	
3.42641	  9.384155	
3.45968	  9.425314	
3.49294	  9.429932	
3.52621	  9.384155	
3.55948	  9.460449	
3.59274	  9.414673	
3.62601	  9.429932	
3.65927	  9.435481	
3.69254	  9.409027	
3.72581	  9.441417	
3.75907	  9.414673	
3.79234	  9.445190	
3.8256	  9.423899	
3.85887	  9.481837	
3.89214	  9.460449	
3.9254	  9.482031	
3.95867	  9.493387	
3.99194	  9.490967	
4.0252	  9.445190	
4.05847	  9.473868	
4.09173	  9.453643	
4.125	  9.475708	
4.15827	  9.422933	
4.19153	  9.445190	
4.2248	  9.436252	
4.25806	  9.428573	
4.29133	  9.498353	
4.3246	  9.490967	
4.35786	  9.468029	
4.39113	  9.437701	
4.4244	  9.430219	
4.45766	  9.468319	
4.49093	  9.498933	
4.52419	  9.391351	
4.55746	  9.437031	
4.59073	  9.476962	
4.62399	  9.407767	
4.65726	  9.453640	
4.69052	  9.477542	
4.72379	  9.497582	
4.75706	  9.475708	
4.79032	  9.438768	
4.82359	  9.447798	
4.85685	  9.466678	
4.89012	  9.463444	
4.92339	  9.435967	
4.95665	  9.429932	
4.98992	  9.372471	
5.02319	  9.414673	
5.05645	  9.500577	
5.08972	  9.443793	
5.12298	  9.410325	
5.15625	  9.459632	
5.18952	  9.450453	
5.22278	  9.434859	
5.25605	  9.445190	
5.28931	  9.389470	
5.32258	  9.389030	
5.35585	  9.446114	
5.38911	  9.358319	
5.42238	  9.425346	
5.45565	  9.455960	
5.48891	  9.436407	
5.52218	  9.368896	
5.55544	  9.410475	
5.58871	  9.436987	
5.62198	  9.357643	
5.65524	  9.384155	
5.68851	  9.365085	
5.72177	  9.323120	
5.75504	  9.418291	
5.78831	  9.350116	
5.82157	  9.399414	
5.85484	  9.402742	
5.8881	  9.362433	
5.92137	  9.344649	
5.95464	  9.405491	
5.9879	  9.329003	
6.02117	  9.357517	
6.05444	  9.366148	
6.0877	  9.363593	
6.12097	  9.338379	
6.15423	  9.366438	
6.1875	  9.364174	
6.22077	  9.333849	
6.25403	  9.371064	
6.2873	  9.370968	
6.32056	  9.296552	
6.35383	  9.382277	
6.3871	  9.355419	
6.42036	  9.338379	
6.45363	  9.367309	
6.4869	  9.307861	
6.52016	  9.309256	
6.55343	  9.396818	
6.58669	  9.352436	
6.61996	  9.384155	
6.65323	  9.340395	
6.68649	  9.325853	
6.71976	  9.356081	
6.75302	  9.384155	
6.78629	  9.383534	
6.81956	  9.355736	
6.85282	  9.384155	
6.88609	  9.354630	
6.91935	  9.384155	
6.95262	  9.384155	
6.98589	  9.338461	
7.01915	  9.414561	
7.05242	  9.414520	
7.08569	  9.369145	
7.11895	  9.414327	
7.15222	  9.398529	
7.18548	  9.397797	
7.21875	  9.399414	
7.25202	  9.414673	
7.28528	  9.368896	
7.31855	  9.428080	
7.35181	  9.414673	
7.38508	  9.383036	
7.41835	  9.398198	
7.45161	  9.384155	
7.48488	  9.396596	
7.51815	  9.388673	
7.55141	  9.401016	
7.58468	  9.353638	
7.61794	  9.414673	
7.65121	  9.399414	
7.68448	  9.359606	
7.71774	  9.416759	
7.75101	  9.399414	
7.78427	  9.355917	
7.81754	  9.401791	
7.85081	  9.404360	
7.88407	  9.368896	
7.91734	  9.399414	
7.9506	  9.404940	
7.98387	  9.356497	
8.01714	  9.368896	
8.0504	  9.429932	
8.08367	  9.389965	
8.11694	  9.414673	
8.1502	  9.429932	
8.18347	  9.333439	
8.21673	  9.384155	
8.25	  9.414673	
8.28327	  9.376696	
8.31653	  9.399414	
8.3498	  9.395491	
8.38306	  9.372916	
8.41633	  9.421699	
8.4496	  9.392582	
8.48286	  9.377516	
8.51613	  9.390601	
8.5494	  9.384155	
8.58266	  9.379556	
8.61593	  9.414673	
8.64919	  9.393742	
8.68246	  9.394525	
8.71573	  9.404699	
8.74899	  9.399405	
8.78226	  9.404594	
8.81552	  9.440485	
8.84879	  9.399414	
8.88206	  9.389626	
8.91532	  9.409106	
8.94859	  9.353638	
8.98185	  9.401436	
9.01512	  9.454593	
9.04839	  9.396062	
9.08165	  9.466499	
9.11492	  9.436078	
9.14819	  9.384155	
9.18145	  9.429932	
9.21472	  9.392977	
9.24798	  9.445190	
9.28125	  9.423302	
9.31452	  9.490967	
9.34778	  9.399414	
9.38105	  9.407752	
9.41431	  9.422915	
9.44758	  9.422818	
9.48085	  9.384155	
9.51411	  9.415318	
9.54738	  9.376300	
9.58065	  9.376655	
9.61391	  9.399414	
9.64718	  9.323120	
9.68044	  9.330911	
9.71371	  9.361010	
9.74698	  9.345654	
9.78024	  9.337477	
9.81351	  9.353638	
9.84677	  9.377171	
9.88004	  9.323120	
9.91331	  9.367221	
9.94657	  9.360332	
9.97984	  9.325183	
10.0131	  9.377654	
10.0464	  9.344784	
10.0796	  9.333094	
10.1129	  9.408462	
10.1462	  9.332264	
10.1794	  9.359655	
10.2127	  9.374818	
10.246	  9.363071	
10.2792	  9.359365	
10.3125	  9.359269	
10.3458	  9.328654	
10.379	  9.374334	
10.4123	  9.384155	
10.4456	  9.364126	
10.4788	  9.379007	
10.5121	  9.384155	
10.5454	  9.379201	
10.5786	  9.384155	
